<svg fill="none" height="200" viewBox="0 0 200 200" width="200" xmlns="http://www.w3.org/2000/svg"><g fill="#bfdff2"><path d="m169.589 140.029-78.7436-78.7431c-1.1339-1.118-2.8189-1.4646-4.2916-.8504-1.4724.6064-2.4332 2.0474-2.4332 3.6379v109.0276c0 1.505.8582 2.875 2.2128 3.536 1.3543.662 2.9688.496 4.1418-.433l19.9928-15.631 17.45 31.403c.724 1.292 2.063 2.024 3.449 2.024.59 0 1.197-.134 1.764-.417l23.623-11.812c.96-.48 1.685-1.331 2-2.355.315-1.031.197-2.141-.315-3.078l-16.442-29.584h24.805c1.59 0 3.023-.961 3.637-2.433.614-1.473.276-3.166-.85-4.292zm-34.277-1.141c-1.394 0-2.686.74-3.394 1.944-.709 1.197-.733 2.686-.055 3.906l17.693 31.836-16.575 8.292-17.852-32.144c-.559-1.008-1.535-1.724-2.661-1.952-.268-.055-.528-.079-.787-.079-.867 0-1.733.291-2.426.834l-17.2606 13.497v-91.4444l65.3096 65.3104z"/><path d="m88.0579 5c-2.1733 0-3.9373 1.76397-3.9373 3.93729v23.62301c0 2.1733 1.764 3.9373 3.9373 3.9373s3.9373-1.764 3.9373-3.9373v-23.62301c-.0004-2.17332-1.764-3.93729-3.9373-3.93729z"/><path d="m56.5603 60.1202h-23.623c-2.1733 0-3.9373 1.764-3.9373 3.9373s1.764 3.9373 3.9373 3.9373h23.623c2.1733 0 3.9373-1.764 3.9373-3.9373s-1.764-3.9373-3.9373-3.9373z"/><path d="m143.178 60.1202h-23.623c-2.173 0-3.937 1.764-3.937 3.9373s1.764 3.9373 3.937 3.9373h23.623c2.173 0 3.937-1.764 3.937-3.9373s-1.764-3.9373-3.937-3.9373z"/><path d="m68.5689 39.0013-16.7093-16.7015c-1.5354-1.5355-4.0317-1.5355-5.5672 0s-1.5355 4.0318 0 5.5673l16.7092 16.7014c.7718.7637 1.7795 1.1498 2.7875 1.1498 1.0081 0 2.0157-.378 2.7798-1.1498 1.5355-1.5355 1.5355-4.0317 0-5.5672z"/><path d="m68.5689 83.5542c-1.5355-1.5355-4.0318-1.5355-5.5673 0l-16.7092 16.7018c-1.5355 1.535-1.5355 4.031 0 5.567.7718.764 1.7794 1.15 2.7875 1.15 1.008 0 2.0157-.386 2.7797-1.15l16.7093-16.7015c1.5355-1.5355 1.5355-4.0318 0-5.5673z"/><path d="m129.824 22.2997c-1.536-1.5432-4.032-1.5432-5.575 0l-16.71 16.7015c-1.535 1.5355-1.535 4.0318 0 5.5673.772.7636 1.78 1.1497 2.788 1.1497s2.016-.3779 2.787-1.1497l16.71-16.7015c1.535-1.5355 1.535-4.0237 0-5.5673z"/></g></svg>