<svg fill="none" height="200" viewBox="0 0 200 200" width="200" xmlns="http://www.w3.org/2000/svg"><g clip-rule="evenodd" fill="#ffe49f" fill-rule="evenodd"><path d="m21.2165 73.7018c.5546-1.6163 2.0747-2.7018 3.7835-2.7018h150c1.709 0 3.229 1.0855 3.783 2.7018.555 1.6164.022 3.4065-1.327 4.4556l-75 58.3336c-1.445 1.123-3.4673 1.123-4.9118 0l-75-58.3336c-1.3488-1.0491-1.8823-2.8392-1.3277-4.4556zm15.4416 5.2982 63.3419 49.266 63.342-49.266z"/><path d="m100 129.333c2.209 0 4 1.791 4 4v50c0 2.209-1.791 4-4 4-2.2091 0-4-1.791-4-4v-50c0-2.209 1.7909-4 4-4z"/><path d="m125.333 44.9525c1.913 1.1045 2.569 3.5509 1.464 5.4641l-23.333 40.4166c-1.104 1.9132-3.5507 2.5688-5.4639 1.4642-1.9132-1.1045-2.5688-3.5508-1.4643-5.464l23.3332-40.4167c1.105-1.9132 3.551-2.5687 5.464-1.4642z"/><path d="m143.666 13.2024c1.913 1.1044 2.569 3.5507 1.465 5.464l-5.917 10.25c-1.104 1.9132-3.551 2.5689-5.464 1.4645s-2.569-3.5507-1.464-5.4639l5.916-10.25c1.105-1.9133 3.551-2.569 5.464-1.4646z"/><path d="m71 183.333c0-2.209 1.7909-4 4-4h50c2.209 0 4 1.791 4 4s-1.791 4-4 4h-50c-2.2091 0-4-1.791-4-4z"/><path d="m112.667 37.5c0-9.1128 7.387-16.5 16.5-16.5 9.112 0 16.5 7.3872 16.5 16.5s-7.388 16.5-16.5 16.5c-9.113 0-16.5-7.3872-16.5-16.5zm16.5-8.5c-4.695 0-8.5 3.8056-8.5 8.5s3.805 8.5 8.5 8.5c4.694 0 8.5-3.8056 8.5-8.5s-3.806-8.5-8.5-8.5z"/></g></svg>