<svg fill="none" height="200" viewBox="0 0 200 200" width="200" xmlns="http://www.w3.org/2000/svg"><g clip-rule="evenodd" fill="#f8d0da" fill-rule="evenodd"><path d="m155.842 22.3316c7.742-1.8217 15.158 4.0524 15.158 12.0054v22.8117c0 2.2091-1.791 4-4 4h-141.6666c-2.0308 0-3.7392-1.5217-3.9734-3.5389-.2341-2.0172 1.0805-3.8897 3.0572-4.3548zm7.158 12.0054c0-2.7945-2.606-4.8581-5.325-4.2181l-97.8773 23.0298h103.2023z"/><path d="m25.3334 61.1487c-2.3742 0-4.3334 1.9591-4.3334 4.3333v100c0 2.374 1.9591 4.333 4.3333 4.333h149.9997c2.375 0 4.334-1.959 4.334-4.333v-100c0-2.3742-1.959-4.3334-4.334-4.3334zm-12.3334 4.3333c0-6.7925 5.5409-12.3334 12.3333-12.3334h149.9997c6.793 0 12.334 5.5409 12.334 12.3334v100c0 6.792-5.541 12.333-12.334 12.333h-149.9997c-6.7924 0-12.3333-5.541-12.3333-12.333z"/><path d="m150.333 102.815c-6.957 0-12.666 5.709-12.666 12.667s5.709 12.667 12.666 12.667h29.334v-25.334zm-20.666 12.667c0-11.376 9.291-20.6667 20.666-20.6667h33.334c2.209 0 4 1.7909 4 4v33.3337c0 2.209-1.791 4-4 4h-33.334c-11.375 0-20.666-9.291-20.666-20.667z"/></g></svg>